<svg xmlns="http://www.w3.org/2000/svg" width="32" height="32" viewBox="0 0 24 24" fill="none" stroke="currentColor" stroke-width="2" stroke-linecap="round" stroke-linejoin="round">
  <path d="M21 11.5a8.38 8.38 0 0 1-1.9 5.4A8.5 8.5 0 0 1 12 20a8.38 8.38 0 0 1-5.4-1.9L3 21l1.9-3.6A8.38 8.38 0 0 1 3 12a8.5 8.5 0 0 1 3.1-6.6A8.38 8.38 0 0 1 12 3a8.5 8.5 0 0 1 6.6 3.1A8.38 8.38 0 0 1 21 11.5z"></path>
  <line x1="12" y1="11" x2="12" y2="11"></line>
  <line x1="8" y1="11" x2="8" y2="11"></line>
  <line x1="16" y1="11" x2="16" y2="11"></line>
</svg>
